<?xml version="1.0" encoding="UTF-8"?><svg id="Layer_2" xmlns="http://www.w3.org/2000/svg" viewBox="0 0 69.93 84.2"><defs><style>.cls-1{fill:#ff3;}.cls-1,.cls-2{stroke:red;stroke-miterlimit:10;stroke-width:.89px;}.cls-2{fill:#40e0d0;}</style></defs><g id="Layer_2-2"><g id="Layer_1-2"><path class="cls-1" d="m35.99,24.87c0,2.23-.03,4.46,0,6.69.03,1.55.15,3.1.22,4.65.03.65.41.91,1,1,1.6.25,1.73.43,1.78,2.01.04,1.1.13,2.2.21,3.3.08,1.15-.19,1.59-1.32,1.71-2.18.24-4.36.68-6.58.29-1.39-.24-1.65-.4-1.78-1.8-.21-2.21-.64-4.41-.89-6.62-.33-2.91-.67-5.82-.84-8.74-.14-2.34-.02-4.7-.04-7.05-.02-1.88-.13-3.76-.1-5.64.05-3.28.16-6.56.27-9.84.04-1.27.48-2.39,1.43-3.29,1.42-1.34,3.67-1.47,5.17-.25.88.72,1.1,1.8,1.12,2.85.06,2.45,0,4.91.05,7.36.04,2,.21,4,.25,6,.05,2.46,0,4.91,0,7.37h.04Z"/><path class="cls-1" d="m20.83,33.63c.46,1.86.9,3.73,1.37,5.59.56,2.18,1.14,4.35,1.73,6.52.16.58-.17.91-.63,1.01-1.22.25-2.46.46-3.7.58-.2.02-.59-.45-.66-.75-.39-1.5-.82-3-1.03-4.53-.47-3.53-1.39-6.95-2.14-10.42-.64-2.98-.93-6.03-1.56-9.01-.76-3.59-1.15-7.21-1.33-10.86,0-.1,0-.2-.02-.3-.73-2.61.73-3.34,2.81-3.84.51-.12,1.1-.02,1.63.07.94.16,1.43.74,1.63,1.71,1.04,4.89,1.91,9.82,3.24,14.63,1.73,6.24,3.83,12.37,5.78,18.55.18.57.46,1.11.68,1.67.35.91.18,1.23-.75,1.45-.51.12-1.02.27-1.53.38-1.19.25-1.53.05-1.89-1.09-.7-2.22-1.41-4.43-2.09-6.65-.48-1.57-.92-3.15-1.38-4.73-.05,0-.11,0-.16.02Zm-2.29-8.89c.09-.02.17-.04.26-.06.25-.86-.11-2.18-.91-2.59.22.89.44,1.77.66,2.66h-.01Z"/><path class="cls-1" d="m50.05,17.41c1-2.07,2-4.14,2.99-6.21.51-1.06,1.57-1.51,2.59-1.05,1.1.49,1.59,1.67,1.09,2.74-.61,1.31-1.28,2.6-1.91,3.91-1,2.07-1.98,4.15-2.99,6.22-.44.9-.83,1.84-1.38,2.66-.7,1.06-.72,2.17-.62,3.36.23,2.84.43,5.69.59,8.53.1,1.72.09,3.45.17,5.18.03.73-.27,1.1-.96,1.15-.72.06-1.45.13-2.16.06-1.04-.1-1.22-.33-1.31-1.38-.17-2.19-.32-4.39-.47-6.58,0-.2-.04-.39-.18-.61-.06.21-.15.41-.18.62-.26,1.88-.51,3.77-.78,5.65-.06.42-.17.83-.3,1.23-.36,1.07-.74,1.29-1.84,1.1-.3-.05-.59-.13-.88-.19-1.58-.3-1.46-.11-1.41-1.83.09-3.05.97-5.96,1.63-8.91,1.15-5.15,2.13-10.33,3.36-15.45.59-2.47,1.6-4.83,2.42-7.24.07-.21.16-.42.28-.61.32-.51.23-1.4,1.13-1.4,1.06,0,2.14.13,2.9.95.26.28.36.91.25,1.3-.52,1.77-1.14,3.52-1.72,5.27-.16.5-.28,1-.42,1.51.03,0,.06.02.08.02h.03Z"/><path class="cls-2" d="m47.39,72.25c.43,1.32.86,2.65,1.29,3.97.29.88.62,1.74.89,2.63.27.88.11,1.22-.72,1.62-1.15.55-2.3,1.12-3.47,1.62-1.11.47-1.49.3-1.82-.86-.68-2.4-1.29-4.83-1.97-7.24-.52-1.85-1.15-3.67-1.64-5.53-.43-1.62-.75-3.26-1.07-4.9-.04-.22.18-.64.38-.73,1.6-.71,3.33-.89,5.06-.93.67-.02,1.06.49,1.4,1.01.72,1.12,1.44,2.23,2.31,3.28-.2-.47-.39-.95-.59-1.41-.28-.64-.6-1.27-.86-1.92-.22-.55,0-.95.57-1.08,1.58-.36,3.17-.68,4.76-1.03.64-.14.97.14,1.19.72,1.06,2.8,2.11,5.61,3.21,8.4.32.81.79,1.56,1.18,2.35.24.48.17.91-.23,1.29-1.59,1.52-3.08,3.16-5,4.3-.19.11-.38.25-.58.34-.54.22-.91.11-1.2-.48-.88-1.74-1.83-3.45-2.76-5.17-.06-.1-.14-.19-.21-.28-.04.02-.07.03-.11.05v-.02Z"/><path class="cls-2" d="m35.25,74.64c.3,1.81.63,3.63.9,5.45.12.81.19,1.65.16,2.47,0,.27-.37.7-.63.75-.58.11-1.19.06-1.79,0-.59-.06-1.19-.17-1.77-.31-.81-.18-1.37-.58-1.55-1.5-.45-2.3-1.02-4.58-1.47-6.89-.48-2.5-.88-5.02-1.32-7.53-.16-.94-.34-1.87-.52-2.8-.09-.49.05-.87.53-1.03.7-.23,1.41-.51,2.14-.59,1.42-.15,2.84-.17,4.27-.24.85-.04,1.7-.09,2.55-.06,1.03.04,1.42.38,1.66,1.4.75,3.13,1.46,6.27,2.23,9.39.73,2.96,1.54,5.9,2.31,8.85.06.22.1.44.12.66.08.81-.13,1.14-.92,1.09-1.47-.08-2.94-.24-4.4-.45-.69-.1-.95-.74-1.06-1.33-.3-1.72-.53-3.46-.8-5.19-.12-.74-.27-1.48-.41-2.22-.08.02-.16.04-.23.07h0Zm-.58-3.68c-.17-.71-.33-1.42-.53-2.12-.03-.11-.19-.22-.31-.26-.05-.02-.21.11-.24.2-.11.31.58,1.99,1.07,2.18h.01Z"/><path class="cls-2" d="m69.4,47.34c-.33,1.3-.58,2.63-1,3.91-1,2.99-1.93,6.01-3.18,8.9-1,2.33-2.4,4.49-3.65,6.71-.43.76-.88,1.52-1.39,2.23-.43.6-.93,1.17-1.46,1.69-.43.42-.88.28-1.18-.23-.14-.23-.27-.48-.38-.73-.96-2.25-1.92-4.5-2.88-6.75-.14-.32-.29-.64-.44-.96-.66-1.47-.54-1.77.51-2.99.89-1.04,1.71-2.16,2.4-3.33,1.72-2.94,3.3-5.95,5.03-8.88.56-.96,1.38-1.77,2.12-2.62.61-.7,1.46-.95,2.36-1,.75-.04,1.42.16,1.91.83.71.96,1.16,1.99,1.24,3.23h0Zm-6.78,7.54c-.97.31-1.26,1.19-1.77,1.87-.35.47-.21.82.37,1.12.7-.9,1.37-1.78,1.4-2.98h0Z"/><path class="cls-2" d="m21.42,67.98c-.25-1.06-.46-2.12-.76-3.17-.2-.72.12-.99.73-1.09,1.31-.21,2.62-.42,3.93-.6,1.1-.15,1.26-.11,1.48.96.3,1.41.4,2.87.66,4.29.47,2.63.98,5.26,1.51,7.88.29,1.44.65,2.87.98,4.3.21.89-.13,1.3-1.05,1.21-1.14-.12-2.29-.24-3.43-.4-1.01-.14-1.32-.49-1.48-1.47-.24-1.51-.5-3.01-.76-4.51-.04-.24-.14-.46-.22-.69-.07,0-.13,0-.2.01,0,.24-.03.48,0,.71.21,1.36.44,2.72.64,4.08.15.99-.25,1.33-1.18.98-1.51-.57-3.01-1.19-4.51-1.81-.86-.36-1.24-1.08-1.5-1.95-.53-1.77-1.12-3.52-1.68-5.28-.58-1.83-1.18-3.66-1.72-5.51-.06-.22.19-.72.41-.81,1.91-.78,3.89-1.31,5.98-1.17.69.04.88.61,1.04,1.13.24.76.42,1.54.64,2.31.06.23.17.44.26.66.07-.02.15-.04.22-.06h.01Z"/><path class="cls-1" d="m11.32,35.97c.27.65.52,1.31.81,1.96,1.36,3.06,2.74,6.12,4.1,9.18.5,1.14.33,1.58-.81,2.02-.93.36-1.89.64-2.83.97-.71.25-1.15,0-1.41-.69-.93-2.43-1.88-4.85-2.82-7.28-.52-1.33-1.03-2.66-1.54-3.99-.2-.53-.48-.82-1.13-.6-.57.19-.92-.04-1.18-.67-1.6-3.97-2.92-8.04-3.99-12.18-.19-.74,0-1.22.6-1.59,1.49-.9,3.06-1.58,4.83-1.73.63-.05.95.13,1.18.74,1.46,3.78,2.95,7.55,4.44,11.32.1.25.23.5.37.74.45.79.25,1.39-.62,1.81h0Z"/><path class="cls-1" d="m40.36,50.65c-.16-.95-.32-1.89-.46-2.84-.1-.67-.17-1.34-.25-2-.08-.63.16-1.02.81-1.1.49-.06.99-.17,1.49-.17.99,0,1.28.27,1.41,1.27.47,3.65.91,7.29,1.38,10.94.14,1.07.35,2.12.55,3.18.13.67-.02,1.12-.76,1.27-.44.09-.86.25-1.3.35-1.09.25-1.41.06-1.59-1.06-.22-1.41-.4-2.82-.61-4.23-.02-.13-.06-.26-.22-.37.12,1.51.2,3.02.38,4.53.14,1.16.02,1.37-1.17,1.4-.18,0-.35,0-.53.02-1.68.16-1.69.16-1.91-1.51-.26-2.01-.45-4.03-.76-6.03-.37-2.39-.89-4.76-1.26-7.15-.32-2.08-.21-2.14,1.48-2.29.22-.02.44-.09.66-.13,1.32-.2,1.59.05,1.74,1.35.18,1.55.45,3.09.68,4.64.08,0,.16-.03.24-.04v-.03Z"/><path class="cls-1" d="m22.78,63.02c-1.17,0-1.5-.29-1.69-1.17-.86-3.87-1.72-7.74-2.6-11.61-.12-.54,0-.96.48-1.22,1.95-1.08,4.04-1.7,6.29-1.73.53,0,.76.22.86.71.87,4.18,1.76,8.35,2.61,12.53.2.99.07,1.18-.92,1.4-1.78.4-3.56.77-5.03,1.09Zm.59-9.09c-.24.53.18,2.44.54,2.62.08.04.39-.16.38-.21-.13-.84-.33-1.67-.92-2.4h0Z"/><path class="cls-1" d="m49.06,49.87c.44-.05.88-.13,1.32-.16.46-.03.92-.02,1.06.58.19.88.04,1.32-.6,1.55-.52.18-1.05.32-1.58.47.02.08.04.16.05.25.32-.04.64-.08.97-.13.95-.13,1.33.17,1.48,1.09.27,1.75.56,3.5.86,5.25.21,1.24.03,1.52-1.21,1.7-1.43.22-2.87.44-4.3.64-.99.13-1.14-.05-1.28-1.03-.48-3.34-1.01-6.68-1.5-10.02-.22-1.48-.39-2.97-.59-4.46-.07-.53.18-.8.69-.87,1.14-.15,2.27-.31,3.41-.46.67-.09,1.34-.15,2.01-.24.53-.08.81.1.87.65.14,1.24.29,2.48.46,3.72.07.51-.18.74-.64.83-.51.11-1.03.23-1.54.35.02.09.04.18.07.27v.02Z"/><path class="cls-1" d="m18.05,58.85c.25,1.21.45,2.31.71,3.4.13.54.01.9-.54,1.02-1.04.24-2.08.49-3.13.68-.6.11-.99-.18-1.14-.8-.23-.95-.53-1.88-.74-2.83-.11-.48-.32-.54-.74-.41-1.03.31-1.12.29-1.43-.76-.6-2.03-1.22-4.06-1.36-6.21-.05-.76.14-1.26.88-1.5,1.85-.61,3.68-1.26,5.54-1.83,1.01-.31,1.71.13,1.97,1.17.57,2.25,1.08,4.52,1.62,6.77.16.67-.31.88-.79,1.06-.25.09-.52.14-.86.22v.02Z"/><path class="cls-1" d="m33.01,45.18c1.41.11,1.44.11,1.71,1.45.58,2.86,1.13,5.73,1.68,8.59.08.4-.02.72-.5.74-.82.03-.71.58-.64,1.11.14,1.14.28,2.28.41,3.42.08.69-.21,1.03-.94,1.14-2.09.33-2.36.19-2.78-1.87-.16-.78-.3-1.57-.43-2.35-.09-.56-.29-.93-.95-.89-.52.04-.77-.21-.89-.77-.58-2.93-1.21-5.86-1.84-8.78-.14-.66.36-.79.77-.89,1.46-.33,2.92-.61,4.39-.9h0Z"/></g></g></svg>